<?xml version="1.0" standalone="no"?>
<!DOCTYPE svg PUBLIC "-//W3C//DTD SVG 20010904//EN"
 "http://www.w3.org/TR/2001/REC-SVG-20010904/DTD/svg10.dtd">
<svg version="1.0" xmlns="http://www.w3.org/2000/svg"
 width="512.000000pt" height="512.000000pt" viewBox="0 0 512.000000 512.000000"
 preserveAspectRatio="xMidYMid meet">
<metadata>
Created by potrace 1.14, written by Peter Selinger 2001-2017
</metadata>
<g transform="translate(0.000000,512.000000) scale(0.100000,-0.100000)"
fill="#000000" stroke="none">
<path d="M955 5084 c-255 -38 -453 -139 -635 -323 -132 -134 -223 -288 -275
-465 -34 -119 -40 -168 -39 -316 0 -143 14 -229 56 -350 77 -219 205 -394 393
-533 78 -58 222 -133 300 -156 22 -7 52 -17 67 -23 l26 -10 0 -151 c-1 -437
141 -748 453 -995 37 -28 72 -52 78 -52 6 0 11 -4 11 -10 0 -5 4 -10 9 -10 7
0 115 -58 138 -75 1 0 -15 -35 -37 -76 -52 -101 -99 -240 -115 -344 -3 -16 -7
-41 -10 -55 -7 -35 -7 -223 1 -289 l6 -54 -99 53 c-348 186 -603 502 -707 875
-37 135 -48 237 -50 485 -2 149 -7 233 -15 248 -14 26 -68 43 -97 29 -44 -19
-48 -45 -47 -275 2 -209 4 -248 18 -357 31 -229 160 -524 316 -721 175 -223
440 -418 678 -500 44 -16 59 -27 83 -63 15 -25 28 -51 28 -58 0 -8 -15 -27
-34 -43 -106 -93 -106 -270 0 -373 72 -69 89 -72 444 -72 312 0 316 1 365 24
37 18 63 23 100 21 72 -5 299 -5 375 0 54 3 74 -1 115 -21 50 -24 52 -24 365
-24 358 0 373 3 448 76 104 104 101 275 -8 373 l-38 34 25 43 c32 57 71 163
83 231 6 29 12 64 15 78 11 54 6 249 -9 333 -20 111 -64 243 -115 345 l-40 79
62 33 c295 157 505 417 585 725 34 132 45 223 46 403 l1 133 90 30 c329 110
584 366 694 695 95 284 69 618 -67 867 -70 128 -92 156 -202 267 -203 204
-457 315 -746 324 -424 13 -809 -212 -1010 -589 -26 -49 -48 -91 -48 -91 -1
-1 -41 7 -91 17 -220 45 -484 43 -700 -6 -33 -7 -61 -13 -61 -12 -1 1 -16 31
-34 66 -155 310 -436 525 -775 596 -101 21 -266 25 -370 9z"/>
</g>
</svg>
